<?xml version="1.0" encoding="utf-8"?>
<!-- Generator: Adobe Illustrator 16.0.0, SVG Export Plug-In . SVG Version: 6.00 Build 0)  -->
<!DOCTYPE svg PUBLIC "-//W3C//DTD SVG 1.1//EN" "http://www.w3.org/Graphics/SVG/1.1/DTD/svg11.dtd">
<svg version="1.1" id="Capa_1" xmlns="http://www.w3.org/2000/svg" xmlns:xlink="http://www.w3.org/1999/xlink" x="0px" y="0px"
	 width="40px" height="40px" viewBox="0 0 40 40" enable-background="new 0 0 40 40" xml:space="preserve">
<g>
	<g>
		<g>
			<path fill="#818080" d="M9.444,34.666H8.667c-3.667,0-6.778-2.889-7.222-6.443l0,0V25V11.222c0-3.222,2.667-5.778,5.778-5.778
				h25.444c3.223,0,5.778,2.667,5.778,5.778V25c0,3.223-2.667,5.777-5.778,5.777H9.333v3.889H9.444z M2.778,27.111v0.333
				c0,3,2.222,5.444,5.111,5.778v-3.778h24.667C35,29.444,37,27.444,37,25V11.222c0-2.444-2-4.444-4.444-4.444H7.222
				c-2.444,0-4.444,2-4.444,4.444V27.111z"/>
			<path fill="#818080" d="M9.778,35H8.667c-3.778,0-7.111-3-7.555-6.777v-17C1.111,7.778,3.889,5,7.222,5h25.444
				c3.445,0,6.223,2.778,6.223,6.222V25c0,3.444-2.777,6.223-6.223,6.223H9.778V35z M7.222,5.667c-3,0-5.444,2.445-5.444,5.445v17
				c0.444,3.444,3.444,6.111,6.889,6.111H9v-3.667h23.666c3,0,5.445-2.444,5.445-5.444V11.222c0-3-2.445-5.444-5.445-5.444H7.222
				V5.667z M8.222,33.666H7.778c-3.111-0.332-5.444-3-5.444-6.11V11.222c0-2.667,2.111-4.778,4.778-4.778h25.333
				c2.667,0,4.778,2.111,4.778,4.778V25c0,2.666-2.111,4.777-4.778,4.777H8.222V33.666z M7.222,7.111c-2.222,0-4,1.777-4,4v16.333
				c0,2.556,1.889,4.778,4.444,5.333v-3.666h25c2.223,0,4-1.777,4-4V11.222c0-2.222-1.777-4-4-4H7.222V7.111z"/>
		</g>
	</g>
	<g>
		<g>
			<g>
				<path fill="#818080" d="M30.556,16c-0.111,0-7,0-7,0c-0.111,0-0.111-0.111-0.111-0.111v-1.111c0-0.333-0.333-0.333-0.333-0.333
					s-6.334,0-6.556,0c-0.333,0-0.333,0.333-0.333,0.333v1.111C16.223,16,16.111,16,16.111,16h-4.889
					c-0.333,0-0.444,0.222-0.444,0.222l-1.889,3.667C8.778,20.111,9,20.111,9,20.111h7.111c0.111,0,0.111,0.111,0.111,0.111v1.112
					c0,0.332,0.333,0.332,0.333,0.332s6.444,0,6.556,0c0.333,0,0.333-0.332,0.333-0.332v-1.112c0-0.111,0.111-0.111,0.111-0.111
					s4.889,0,5,0c0.333,0,0.444-0.333,0.444-0.333l1.777-3.667C30.777,16,30.556,16,30.556,16z"/>
			</g>
		</g>
	</g>
</g>
</svg>
