<?xml version="1.0" encoding="utf-8"?>
<!-- Generator: Adobe Illustrator 16.0.0, SVG Export Plug-In . SVG Version: 6.00 Build 0)  -->
<!DOCTYPE svg PUBLIC "-//W3C//DTD SVG 1.1//EN" "http://www.w3.org/Graphics/SVG/1.1/DTD/svg11.dtd">
<svg version="1.1" id="Layer_1" xmlns="http://www.w3.org/2000/svg" xmlns:xlink="http://www.w3.org/1999/xlink" x="0px" y="0px"
	 width="40px" height="40px" viewBox="0 0 40 40" enable-background="new 0 0 40 40" xml:space="preserve">
<g>
	<path fill="#808080" d="M27.344,3.008c0.529,0.159,1.058,0.317,1.586,0.529l0,0c0.53,0.211,1.06,0.424,1.535,0.688
		c0.478,0.211,1.006,0.476,1.43,0.793l0,0c0.529,0.317,0.952,0.635,1.43,0.952c0.423,0.318,0.846,0.688,1.27,1.112
		c0.423,0.37,0.794,0.74,1.164,1.164c0.369,0.422,0.688,0.899,1.057,1.322l0,0c0.319,0.477,0.637,0.953,0.9,1.429
		c0.266,0.476,0.529,0.953,0.74,1.481l0,0c0.266,0.53,0.478,1.059,0.635,1.587l0,0c0.16,0.53,0.318,1.059,0.478,1.588
		c0.105,0.582,0.212,1.111,0.266,1.641l0,0c0.104,0.582,0.157,1.164,0.157,1.693l0,0c0,0.582,0,1.113-0.054,1.641
		c0,0.583-0.104,1.112-0.157,1.693l0,0c-0.106,0.582-0.212,1.111-0.371,1.642c-0.158,0.528-0.318,1.058-0.529,1.587l0,0
		c-0.158,0.528-0.424,1.059-0.635,1.535c-0.264,0.476-0.529,1.005-0.847,1.481l0,0c-0.264,0.476-0.583,0.9-0.952,1.376l0,0
		c-0.318,0.424-0.688,0.846-1.058,1.27c-0.371,0.423-0.794,0.794-1.218,1.164c-0.423,0.371-0.846,0.74-1.323,1.059l0,0
		c-0.476,0.317-0.952,0.636-1.376,0.9l-0.266,0.158l0,0c-0.422,0.212-0.846,0.424-1.269,0.636c-0.53,0.211-1.06,0.423-1.535,0.581
		l0,0c-0.528,0.212-1.058,0.317-1.639,0.476l0,0c-0.531,0.106-1.061,0.213-1.642,0.318h-0.105h-0.054
		c-0.476,0.053-1.006,0.106-1.535,0.106l0,0c-0.528,0-1.11,0-1.64,0c-0.529-0.054-1.111-0.106-1.692-0.212l0,0
		c-0.53-0.106-1.112-0.213-1.641-0.371c-0.317-0.053-0.635-0.157-1.006-0.317l0,0c-0.317-0.106-0.688-0.212-1.005-0.37
		c-0.37-0.105-0.688-0.265-1.005-0.423c-0.317-0.16-0.635-0.318-0.953-0.529c-0.317-0.159-0.582-0.317-0.793-0.478l0,0
		c-0.265-0.158-0.476-0.265-0.688-0.422l0,0l-0.105-0.106c-0.212-0.159-0.477-0.318-0.688-0.529
		c-0.16-0.105-0.318-0.211-0.477-0.371l-8.255,0.371H2.843l-0.846,0.053H1.414L0.25,32.96l0.582-1.006l0.265-0.53l0,0l0.371-0.635
		l0,0l0.053-0.054l0.318-0.58l0,0l4.286-7.41c-0.052-0.212-0.105-0.423-0.105-0.58l-0.053-0.424l0,0l-0.053-0.265v-0.158l0,0
		c-0.053-0.317-0.053-0.636-0.105-0.901l0.053-0.053c-0.053-0.263-0.053-0.581-0.053-0.899l0,0c0-0.37,0-0.741,0.053-1.111l0,0
		c0-0.318,0.053-0.688,0.106-1.059c0.053-0.37,0.106-0.741,0.158-1.111c0.106-0.371,0.159-0.741,0.265-1.058
		c0.159-0.529,0.317-1.059,0.529-1.588l0,0c0.212-0.582,0.424-1.059,0.636-1.534c0.265-0.53,0.529-1.006,0.847-1.482l0,0
		c0.264-0.476,0.582-0.953,0.952-1.376l0,0c0.318-0.477,0.688-0.899,1.059-1.27c0.423-0.423,0.794-0.793,1.217-1.165l0,0
		c0.423-0.371,0.847-0.741,1.323-1.059c0.476-0.37,0.953-0.635,1.428-0.899c0.476-0.317,0.953-0.529,1.482-0.793l0,0
		c0.477-0.212,1.005-0.424,1.535-0.583c0.53-0.211,1.059-0.37,1.64-0.476c0.529-0.159,1.112-0.265,1.641-0.317
		c0.529-0.053,1.111-0.106,1.693-0.106V2.426c0.529,0,1.111,0,1.641,0.053c0.583,0.053,1.111,0.106,1.692,0.212l0,0
		C26.231,2.743,26.814,2.902,27.344,3.008z M11.838,28.886h0.636h0.211l0,0h0.106l0.265-0.054l0.211,0.211l0.106,0.106l0.158,0.105
		c0.212,0.213,0.424,0.424,0.635,0.582c0.211,0.213,0.423,0.371,0.635,0.53l0,0c0.212,0.157,0.477,0.315,0.742,0.475
		c0.211,0.212,0.476,0.318,0.688,0.477c0.265,0.105,0.529,0.264,0.793,0.371l0,0c0.159,0.106,0.371,0.212,0.53,0.265l0,0h0.053
		l0.159,0.105c0.265,0.105,0.582,0.211,0.793,0.265c0.265,0.105,0.529,0.158,0.847,0.265c0.423,0.106,0.9,0.211,1.323,0.265
		c0.423,0.106,0.847,0.157,1.323,0.157c0.423,0.054,0.847,0.054,1.322,0.054l0,0c0.425-0.054,0.847-0.054,1.271-0.104l0,0
		c0.477-0.054,0.9-0.16,1.323-0.265c0.424-0.106,0.847-0.213,1.27-0.371c0.425-0.106,0.846-0.265,1.218-0.477
		c0.422-0.158,0.793-0.371,1.217-0.583c0.37-0.264,0.74-0.476,1.111-0.74c0.37-0.264,0.688-0.528,1.058-0.846
		c0.318-0.264,0.637-0.582,0.953-0.898c0.265-0.319,0.582-0.637,0.847-1.007s0.529-0.74,0.74-1.112
		c0.213-0.368,0.425-0.74,0.636-1.163c0.211-0.371,0.371-0.794,0.529-1.218c0.16-0.369,0.265-0.794,0.423-1.27
		c0.104-0.424,0.211-0.846,0.265-1.27c0.053-0.423,0.106-0.9,0.158-1.324c0.054-0.422,0.054-0.899,0-1.322
		c0-0.423,0-0.794-0.052-1.217l-0.054-0.106c-0.053-0.423-0.106-0.846-0.213-1.323c-0.104-0.423-0.21-0.846-0.367-1.269
		c-0.16-0.423-0.318-0.794-0.479-1.218c-0.157-0.37-0.368-0.793-0.634-1.164c-0.424-0.793-0.953-1.535-1.535-2.169
		c-0.528-0.635-1.164-1.217-1.8-1.747l0,0l-0.105-0.052c-0.37-0.265-0.741-0.529-1.111-0.793c-0.37-0.212-0.74-0.423-1.165-0.635
		c-0.369-0.159-0.794-0.37-1.215-0.529c-0.371-0.106-0.794-0.265-1.271-0.37c-0.424-0.16-0.9-0.212-1.271-0.318
		c-0.477-0.053-0.9-0.106-1.322-0.159c-0.479,0-0.9,0-1.324,0c-0.476,0-0.899,0.053-1.323,0.105
		c-0.475,0.053-0.898,0.159-1.322,0.212c-0.423,0.106-0.847,0.265-1.27,0.371c-0.422,0.159-0.846,0.318-1.217,0.529
		c-0.423,0.159-0.793,0.371-1.217,0.582l0,0l0,0c-0.371,0.212-0.741,0.476-1.112,0.74c-0.371,0.265-0.688,0.53-1.058,0.794
		c-0.318,0.317-0.635,0.635-0.9,0.952c-0.317,0.318-0.635,0.635-0.9,1.005l-0.106,0.159c-0.212,0.265-0.423,0.583-0.635,0.9
		c-0.211,0.37-0.423,0.794-0.635,1.164c-0.211,0.423-0.37,0.847-0.529,1.218c-0.158,0.423-0.264,0.846-0.422,1.27
		c-0.053,0.318-0.106,0.582-0.159,0.846c-0.053,0.265-0.105,0.529-0.159,0.847c-0.053,0.317-0.053,0.582-0.105,0.846
		c0,0.265,0,0.583,0,0.847l0,0c-0.053,0.265,0,0.583,0,0.847s0.053,0.582,0.053,0.847c0.053,0.265,0.106,0.53,0.159,0.846
		c0.053,0.266,0.106,0.53,0.159,0.793l0.053,0.159v0.053l0,0v0.106l0.053,0.265l-0.106,0.211l-0.053,0.106l0,0l-0.053,0.105l0,0
		l-0.053,0.054L9.14,24.704l-0.423,0.688L8.135,26.45l0,0l-1.588,2.699l4.974-0.212l0.265-0.052l0,0H11.838L11.838,28.886
		L11.838,28.886z"/>
	<path fill="#808080" d="M17.554,9.146c-2.858,1.217-3.757,3.81-3.229,6.721c0.317,1.746,0.953,3.492,2.064,5.609
		c1.112,2.115,2.54,4.128,4.075,5.715c4.128,4.232,10.794,3.491,8.572-0.212c-1.109-1.747-1.745-3.175-1.745-3.175
		s-0.477-1.006-1.429-0.424c-1.007,0.636-1.959,1.323-2.436,1.217c-0.74-0.105-6.561-7.566-4.338-8.73
		c1.006-0.477,2.751-1.059,2.01-2.275c-0.529-0.9-2.434-4.128-2.434-4.128S18.295,8.776,17.554,9.146z"/>
</g>
</svg>
